<mxfile host="app.diagrams.net" modified="2023-10-25T05:34:32.492Z" agent="Mozilla/5.0 (Windows NT 10.0; Win64; x64) AppleWebKit/537.36 (KHTML, like Gecko) Chrome/118.0.0.0 Safari/537.36" etag="dqRFv43Q5LBRrErNMAy-" version="22.0.6" type="device">
  <diagram name="Page-1" id="jDQ8WbFuG_5VtkAY6Tz1">
    <mxGraphModel dx="1050" dy="534" grid="1" gridSize="10" guides="1" tooltips="1" connect="1" arrows="1" fold="1" page="1" pageScale="1" pageWidth="850" pageHeight="1100" math="0" shadow="0">
      <root>
        <mxCell id="0" />
        <mxCell id="1" parent="0" />
        <mxCell id="lSm8LRyDBGxKSkxqkpBv-1" value="" style="rounded=1;whiteSpace=wrap;html=1;" parent="1" vertex="1">
          <mxGeometry x="320" y="100" width="120" height="60" as="geometry" />
        </mxCell>
        <mxCell id="lSm8LRyDBGxKSkxqkpBv-2" value="Application Layer" style="rounded=1;whiteSpace=wrap;html=1;" parent="1" vertex="1">
          <mxGeometry x="320" y="230" width="120" height="60" as="geometry" />
        </mxCell>
        <mxCell id="lSm8LRyDBGxKSkxqkpBv-3" value="DB Layer" style="shape=cylinder3;whiteSpace=wrap;html=1;boundedLbl=1;backgroundOutline=1;size=15;" parent="1" vertex="1">
          <mxGeometry x="350" y="360" width="60" height="80" as="geometry" />
        </mxCell>
        <mxCell id="lSm8LRyDBGxKSkxqkpBv-4" value="Presentation Layer" style="text;html=1;strokeColor=none;fillColor=none;align=center;verticalAlign=middle;whiteSpace=wrap;rounded=0;" parent="1" vertex="1">
          <mxGeometry x="340" y="115" width="60" height="30" as="geometry" />
        </mxCell>
        <mxCell id="lSm8LRyDBGxKSkxqkpBv-5" value="" style="shape=actor;whiteSpace=wrap;html=1;" parent="1" vertex="1">
          <mxGeometry x="350" width="40" height="60" as="geometry" />
        </mxCell>
        <mxCell id="lSm8LRyDBGxKSkxqkpBv-6" value="User" style="text;html=1;strokeColor=none;fillColor=none;align=center;verticalAlign=middle;whiteSpace=wrap;rounded=0;" parent="1" vertex="1">
          <mxGeometry x="390" y="30" width="60" height="30" as="geometry" />
        </mxCell>
        <mxCell id="lSm8LRyDBGxKSkxqkpBv-7" value="" style="endArrow=classic;html=1;rounded=0;entryX=0.423;entryY=-0.06;entryDx=0;entryDy=0;entryPerimeter=0;" parent="1" target="lSm8LRyDBGxKSkxqkpBv-1" edge="1">
          <mxGeometry width="50" height="50" relative="1" as="geometry">
            <mxPoint x="370" y="60" as="sourcePoint" />
            <mxPoint x="420" y="10" as="targetPoint" />
          </mxGeometry>
        </mxCell>
        <mxCell id="lSm8LRyDBGxKSkxqkpBv-8" value="" style="endArrow=classic;html=1;rounded=0;" parent="1" edge="1">
          <mxGeometry width="50" height="50" relative="1" as="geometry">
            <mxPoint x="375" y="160" as="sourcePoint" />
            <mxPoint x="375" y="220" as="targetPoint" />
          </mxGeometry>
        </mxCell>
        <mxCell id="lSm8LRyDBGxKSkxqkpBv-9" value="" style="endArrow=classic;html=1;rounded=0;" parent="1" edge="1">
          <mxGeometry width="50" height="50" relative="1" as="geometry">
            <mxPoint x="380" y="290" as="sourcePoint" />
            <mxPoint x="380" y="350" as="targetPoint" />
          </mxGeometry>
        </mxCell>
        <mxCell id="lSm8LRyDBGxKSkxqkpBv-11" value="" style="rounded=0;whiteSpace=wrap;html=1;" parent="1" vertex="1">
          <mxGeometry x="260" y="490" width="340" height="240" as="geometry" />
        </mxCell>
        <mxCell id="lSm8LRyDBGxKSkxqkpBv-10" value="" style="image;aspect=fixed;html=1;points=[];align=center;fontSize=12;image=img/lib/azure2/networking/Virtual_Networks.svg;" parent="1" vertex="1">
          <mxGeometry x="510" y="470" width="67" height="40" as="geometry" />
        </mxCell>
        <mxCell id="lSm8LRyDBGxKSkxqkpBv-14" value="websubnet" style="points=[[0,0],[0.25,0],[0.5,0],[0.75,0],[1,0],[1,0.25],[1,0.5],[1,0.75],[1,1],[0.75,1],[0.5,1],[0.25,1],[0,1],[0,0.75],[0,0.5],[0,0.25]];outlineConnect=0;gradientColor=none;html=1;whiteSpace=wrap;fontSize=12;fontStyle=0;container=1;pointerEvents=0;collapsible=0;recursiveResize=0;shape=mxgraph.aws4.group;grIcon=mxgraph.aws4.group_security_group;grStroke=0;strokeColor=#147EBA;fillColor=#E6F2F8;verticalAlign=top;align=left;spacingLeft=30;fontColor=#147EBA;dashed=0;" parent="1" vertex="1">
          <mxGeometry x="280" y="560" width="130" height="100" as="geometry" />
        </mxCell>
        <mxCell id="lSm8LRyDBGxKSkxqkpBv-16" value="" style="verticalLabelPosition=bottom;html=1;verticalAlign=top;align=center;strokeColor=none;fillColor=#00BEF2;shape=mxgraph.azure.virtual_machine;" parent="lSm8LRyDBGxKSkxqkpBv-14" vertex="1">
          <mxGeometry x="30" y="30" width="50" height="40" as="geometry" />
        </mxCell>
        <mxCell id="lSm8LRyDBGxKSkxqkpBv-18" value="webVM" style="text;html=1;strokeColor=none;fillColor=none;align=center;verticalAlign=middle;whiteSpace=wrap;rounded=0;" parent="lSm8LRyDBGxKSkxqkpBv-14" vertex="1">
          <mxGeometry x="30" y="70" width="60" height="30" as="geometry" />
        </mxCell>
        <mxCell id="lSm8LRyDBGxKSkxqkpBv-15" value="dbSubnet" style="points=[[0,0],[0.25,0],[0.5,0],[0.75,0],[1,0],[1,0.25],[1,0.5],[1,0.75],[1,1],[0.75,1],[0.5,1],[0.25,1],[0,1],[0,0.75],[0,0.5],[0,0.25]];outlineConnect=0;gradientColor=none;html=1;whiteSpace=wrap;fontSize=12;fontStyle=0;container=1;pointerEvents=0;collapsible=0;recursiveResize=0;shape=mxgraph.aws4.group;grIcon=mxgraph.aws4.group_security_group;grStroke=0;strokeColor=#147EBA;fillColor=#E6F2F8;verticalAlign=top;align=left;spacingLeft=30;fontColor=#147EBA;dashed=0;" parent="1" vertex="1">
          <mxGeometry x="450" y="560" width="125" height="100" as="geometry" />
        </mxCell>
        <mxCell id="lSm8LRyDBGxKSkxqkpBv-17" value="" style="verticalLabelPosition=bottom;html=1;verticalAlign=top;align=center;strokeColor=none;fillColor=#00BEF2;shape=mxgraph.azure.virtual_machine;" parent="lSm8LRyDBGxKSkxqkpBv-15" vertex="1">
          <mxGeometry x="40" y="30" width="50" height="40" as="geometry" />
        </mxCell>
        <mxCell id="lSm8LRyDBGxKSkxqkpBv-19" value="dbVM" style="text;html=1;strokeColor=none;fillColor=none;align=center;verticalAlign=middle;whiteSpace=wrap;rounded=0;" parent="lSm8LRyDBGxKSkxqkpBv-15" vertex="1">
          <mxGeometry x="20" y="70" width="75" height="30" as="geometry" />
        </mxCell>
        <mxCell id="hpFV8mqsD9o1gDOCFLdQ-1" value="" style="endArrow=classic;html=1;rounded=0;" parent="lSm8LRyDBGxKSkxqkpBv-15" edge="1">
          <mxGeometry width="50" height="50" relative="1" as="geometry">
            <mxPoint x="-90" y="49.5" as="sourcePoint" />
            <mxPoint y="51" as="targetPoint" />
            <Array as="points" />
          </mxGeometry>
        </mxCell>
        <mxCell id="hpFV8mqsD9o1gDOCFLdQ-2" value="" style="shape=actor;whiteSpace=wrap;html=1;" parent="1" vertex="1">
          <mxGeometry x="50" y="560" width="40" height="60" as="geometry" />
        </mxCell>
        <mxCell id="hpFV8mqsD9o1gDOCFLdQ-3" value="User" style="text;html=1;strokeColor=none;fillColor=none;align=center;verticalAlign=middle;whiteSpace=wrap;rounded=0;" parent="1" vertex="1">
          <mxGeometry x="40" y="650" width="60" height="30" as="geometry" />
        </mxCell>
        <mxCell id="hpFV8mqsD9o1gDOCFLdQ-4" value="" style="endArrow=classic;html=1;rounded=0;entryX=0.059;entryY=0.5;entryDx=0;entryDy=0;entryPerimeter=0;" parent="1" target="lSm8LRyDBGxKSkxqkpBv-11" edge="1">
          <mxGeometry width="50" height="50" relative="1" as="geometry">
            <mxPoint x="90" y="610" as="sourcePoint" />
            <mxPoint x="140" y="560" as="targetPoint" />
          </mxGeometry>
        </mxCell>
      </root>
    </mxGraphModel>
  </diagram>
</mxfile>
